<?xml version="1.0" standalone="no"?>
<!DOCTYPE svg PUBLIC "-//W3C//DTD SVG 20010904//EN"
 "http://www.w3.org/TR/2001/REC-SVG-20010904/DTD/svg10.dtd">
<svg version="1.0" xmlns="http://www.w3.org/2000/svg"
 width="389.000000pt" height="528.000000pt" viewBox="0 0 389.000000 528.000000"
 preserveAspectRatio="xMidYMid meet">
<metadata>
Created by potrace 1.16, written by Peter Selinger 2001-2019
</metadata>
<g transform="translate(0.000000,528.000000) scale(0.100000,-0.100000)"
fill="#000000" stroke="none">
<path d="M0 5238 c0 -46 0 -46 90 -52 14 0 32 -8 40 -17 14 -15 60 -35 69 -30
10 7 18 -25 9 -36 -6 -7 -7 -14 -2 -15 66 -11 81 -19 80 -41 -2 -21 10 -37 27
-37 4 0 4 12 1 26 -5 20 -3 25 7 22 8 -3 13 -10 12 -15 -1 -5 13 -10 30 -11
47 -3 87 -13 87 -21 0 -3 19 -5 42 -3 32 2 39 1 28 -7 -12 -9 -11 -11 8 -11
15 0 22 -6 22 -18 0 -18 31 -24 46 -9 4 4 12 7 17 7 6 0 7 -3 4 -7 -4 -3 -2
-12 4 -19 6 -8 9 -20 6 -28 -4 -9 -1 -13 7 -10 7 3 23 1 36 -4 40 -15 52 8 18
36 -15 13 -28 28 -28 33 0 15 50 10 56 -5 3 -8 12 -12 20 -9 10 4 12 0 8 -11
-4 -11 -1 -16 10 -16 9 0 16 -7 16 -15 0 -8 7 -15 15 -15 8 0 15 -4 15 -10 0
-5 -8 -10 -17 -10 -12 0 -14 -3 -6 -8 7 -4 9 -13 4 -21 -5 -8 -14 -10 -21 -6
-9 6 -9 3 -1 -14 7 -11 8 -21 2 -21 -5 0 -11 -7 -15 -15 -4 -12 0 -14 21 -9
19 5 30 2 38 -10 11 -15 13 -15 19 -1 3 10 0 15 -11 15 -12 0 -14 3 -6 11 7 7
8 21 3 40 -5 18 -5 29 1 29 6 0 7 5 3 12 -4 6 -3 8 3 5 19 -12 68 -30 76 -29
4 1 7 -3 7 -9 0 -5 4 -8 8 -5 5 3 20 -1 35 -9 14 -7 28 -11 31 -7 3 3 6 -2 6
-10 0 -9 7 -18 15 -22 8 -3 12 -11 10 -18 -7 -17 -45 -18 -45 -1 0 7 -5 13
-11 13 -5 0 -8 4 -5 8 2 4 -7 9 -20 10 -15 1 -22 -2 -19 -8 3 -6 -4 -10 -16
-10 -26 0 -22 -8 7 -13 10 -1 24 -6 30 -9 20 -13 73 -18 79 -8 4 6 11 8 16 4
6 -4 6 -11 -1 -19 -8 -10 -8 -19 -1 -33 6 -11 7 -23 3 -28 -4 -5 0 -3 9 4 14
11 17 9 21 -13 3 -14 1 -25 -3 -25 -5 0 -6 -6 -3 -14 3 -8 15 -11 30 -8 22 4
29 -5 25 -31 -3 -15 20 -47 30 -42 5 4 9 -3 9 -15 0 -14 5 -20 17 -18 10 2 18
-2 18 -9 0 -6 3 -15 8 -19 15 -15 6 -32 -20 -38 -17 -5 -29 -3 -34 6 -8 12 9
30 21 23 4 -2 7 2 7 10 0 8 -9 13 -21 12 -16 -1 -20 3 -19 18 1 11 0 14 -3 8
-3 -7 -14 -13 -24 -13 -14 0 -17 -5 -12 -22 5 -19 7 -20 10 -5 4 18 14 22 25
10 4 -3 -1 -16 -10 -27 -10 -12 -14 -18 -9 -13 13 10 66 -42 59 -58 -3 -10 2
-12 19 -8 21 6 22 5 9 -10 -9 -11 -10 -17 -2 -17 6 0 11 -17 11 -39 0 -22 5
-43 10 -46 6 -4 8 -15 5 -26 -4 -11 -2 -19 4 -19 6 0 11 -4 11 -10 0 -11 -63
-1 -68 12 -2 4 -15 8 -29 8 -26 0 -77 33 -66 43 3 4 7 20 8 37 3 36 -15 37
-53 3 -17 -16 -29 -20 -45 -14 -67 25 -136 43 -146 37 -6 -4 -25 0 -42 9 -17
9 -57 23 -88 31 -54 15 -90 34 -61 34 7 0 0 11 -16 25 -15 13 -30 22 -32 20
-3 -2 -13 0 -23 5 -11 7 -20 7 -24 0 -14 -23 -63 15 -58 45 4 19 0 20 -61 21
-36 0 -66 -2 -66 -6 0 -3 10 -14 23 -25 l22 -20 -22 -3 c-13 -2 -49 5 -80 16
-32 11 -80 26 -108 33 -27 7 -76 23 -107 36 -32 13 -62 23 -68 23 -7 0 -10
-743 -10 -2300 l0 -2300 131 0 c149 0 136 -11 108 90 -7 25 -14 113 -15 195
-2 83 -6 229 -10 325 -13 299 -9 701 8 885 9 94 16 179 16 190 0 11 6 40 13
65 110 405 147 519 215 655 30 60 50 82 135 155 102 86 112 93 184 128 22 10
85 42 140 70 55 28 118 52 140 55 22 2 82 21 134 41 52 21 130 49 173 63 88
28 95 36 114 128 7 33 21 78 30 100 l17 40 10 -45 c11 -57 16 -62 82 -95 51
-24 56 -25 77 -11 12 9 33 16 47 16 36 0 101 22 102 34 1 6 2 16 4 21 1 6 3
16 3 23 1 6 8 12 15 12 8 0 30 18 50 40 19 22 41 40 49 40 7 0 29 14 48 30
l35 29 -27 1 c-15 0 -79 -7 -143 -15 -105 -14 -162 -12 -175 4 -3 4 -23 15
-46 25 -50 22 -101 62 -92 72 4 4 14 2 21 -4 8 -7 17 -9 20 -5 4 3 7 1 7 -6 0
-8 6 -9 18 -4 9 5 28 7 42 6 14 -1 50 -5 80 -9 30 -3 50 -2 44 3 -23 17 -74
122 -63 129 6 3 9 17 6 29 -3 21 2 25 59 39 35 9 75 16 89 16 24 0 25 2 11 15
-8 8 -29 15 -46 15 -18 0 -33 6 -36 15 -4 8 -10 13 -14 10 -14 -9 -21 28 -8
41 7 7 35 17 62 21 l50 8 -28 19 c-16 10 -34 19 -40 21 -63 16 -73 31 -28 41
15 4 30 12 34 18 5 7 8 4 8 -6 0 -24 25 -23 42 1 13 18 56 21 94 7 6 -2 17 0
25 5 12 7 12 9 -1 10 -8 1 -19 1 -24 0 -4 -1 -14 3 -21 9 -7 6 -34 11 -59 12
-38 0 -53 7 -83 34 -20 19 -32 34 -26 34 9 0 11 52 3 70 -1 3 -2 9 -1 13 3 17
21 154 25 192 4 29 -1 49 -17 75 -27 44 -67 79 -89 80 -10 0 -18 4 -18 8 0 4
-15 12 -32 17 -45 13 -51 54 -13 79 18 12 25 24 22 36 -3 10 2 29 11 42 15 22
15 22 -1 9 -15 -12 -20 -12 -30 -1 -9 10 -9 13 1 17 6 3 12 11 12 19 0 8 7 14
16 14 11 0 15 6 11 20 -3 13 0 20 9 20 20 0 94 33 94 42 0 5 7 8 15 8 8 0 15
-6 15 -12 0 -8 14 -13 39 -13 25 0 37 4 34 11 -3 9 11 11 46 8 28 -3 60 0 71
6 16 8 23 7 37 -10 10 -11 23 -20 29 -20 6 0 30 -18 52 -39 22 -21 50 -42 62
-46 16 -5 19 -9 10 -15 -9 -6 -7 -10 8 -14 11 -4 22 -16 25 -26 6 -23 30 -26
50 -6 8 8 18 11 23 6 5 -4 18 -11 29 -14 11 -3 5 -4 -12 -2 -32 2 -38 -3 -34
-33 2 -8 -2 -10 -10 -5 -9 5 -10 2 -5 -12 5 -10 11 -28 14 -39 3 -11 16 -34
29 -51 29 -39 43 -83 49 -149 2 -27 7 -66 10 -85 8 -42 11 -65 15 -107 2 -18
6 -33 9 -33 3 0 18 -11 33 -25 32 -30 32 -29 11 20 -10 25 -20 35 -30 31 -10
-4 -14 3 -15 29 -1 19 -2 43 -3 52 0 10 10 23 22 29 13 6 29 17 35 23 15 15
50 14 65 -1 16 -16 14 -94 -3 -143 -8 -22 -15 -49 -15 -60 0 -21 -44 -162 -63
-203 -9 -18 -18 -23 -38 -20 -26 4 -27 2 -37 -68 -5 -40 -22 -98 -36 -129 -27
-60 -31 -97 -20 -203 5 -48 11 -62 29 -72 25 -13 53 -56 78 -120 12 -32 16
-36 12 -15 -5 27 -4 28 7 10 6 -11 18 -26 25 -33 7 -7 13 -17 13 -22 0 -8 32
-23 55 -26 10 -1 20 -4 80 -27 17 -7 32 -12 35 -12 3 0 10 -3 15 -7 12 -7 107
-21 142 -21 12 1 24 -4 26 -11 3 -6 22 -13 43 -14 21 -2 41 -7 44 -11 3 -5 19
-8 35 -8 34 1 197 -73 177 -81 -8 -2 27 -28 77 -58 50 -29 117 -73 150 -99 50
-40 64 -58 99 -133 78 -171 142 -400 142 -515 0 -17 9 -75 20 -127 22 -106 38
-237 75 -600 14 -135 32 -285 41 -335 24 -140 27 -195 26 -411 -1 -208 -8
-251 -48 -295 -14 -16 -14 -22 5 -64 14 -32 21 -68 21 -111 l0 -64 70 0 70 0
0 1534 0 1535 -22 4 -23 4 23 2 c22 1 22 3 22 146 0 135 -1 145 -20 155 -11 6
-18 15 -15 21 4 5 0 9 -8 9 -21 0 -30 29 -12 36 18 7 20 25 3 21 -7 -1 -16
-10 -20 -19 -4 -10 -12 -18 -18 -18 -15 0 -12 26 5 40 8 7 12 17 8 23 -3 6 -1
7 5 3 7 -4 12 -1 12 8 0 19 16 21 23 4 4 -9 6 -9 6 1 1 11 5 10 16 -5 13 -18
14 -16 15 24 0 26 -6 50 -16 59 -8 9 -14 25 -13 37 2 35 -1 42 -12 26 -8 -12
-9 -9 -4 10 3 14 7 30 7 36 1 6 9 9 19 7 18 -5 18 20 19 526 0 376 -3 531 -11
531 -6 0 -17 -7 -25 -15 -8 -8 -47 -24 -87 -35 -40 -12 -85 -27 -102 -35 -35
-16 -175 -60 -225 -71 -44 -10 -40 -9 -73 -22 -16 -7 -34 -12 -40 -12 -7 0
-23 -7 -35 -16 -12 -8 -27 -12 -32 -9 -6 3 -10 2 -10 -4 0 -5 -18 -9 -40 -8
-41 2 -46 6 -32 22 4 6 5 9 3 8 -2 -2 -10 2 -18 8 -9 9 -13 8 -13 0 0 -6 4
-11 9 -11 4 0 6 -11 3 -25 -2 -14 -11 -25 -18 -25 -8 0 -19 11 -24 25 -5 14
-12 25 -15 25 -4 0 -3 -5 1 -11 3 -6 0 -15 -7 -20 -11 -7 -10 -9 3 -9 11 0 15
-5 12 -15 -7 -18 -34 -20 -35 -2 0 6 -5 1 -10 -12 -5 -14 -15 -21 -23 -18 -8
3 -19 0 -25 -7 -6 -8 -39 -19 -74 -26 -76 -17 -66 -13 -107 -31 -19 -9 -50
-19 -67 -22 -28 -6 -33 -4 -33 13 0 11 4 20 10 20 5 0 7 -8 4 -17 -4 -12 1
-10 14 6 11 14 18 31 15 38 -3 7 0 13 7 13 6 0 8 -4 5 -10 -3 -5 -1 -10 6 -10
7 0 5 -6 -6 -13 -11 -9 -14 -16 -8 -20 6 -4 16 0 23 8 7 8 18 15 25 15 8 0 16
6 18 13 4 9 6 9 6 0 1 -7 7 -10 15 -7 8 3 12 12 9 21 -5 13 -3 13 16 1 18 -11
23 -11 30 1 6 9 5 21 -2 33 -15 23 -27 23 -27 1 0 -15 -2 -16 -9 -3 -6 8 -7
18 -5 22 3 4 1 8 -5 8 -5 0 -12 -4 -15 -9 -3 -4 -17 -7 -30 -6 -18 2 -23 -1
-19 -11 3 -8 1 -15 -3 -15 -37 -6 -53 -5 -49 1 3 4 -2 13 -9 19 -9 8 -16 8
-20 2 -4 -5 -1 -13 6 -17 7 -5 4 -10 -12 -16 -15 -6 -27 -5 -34 3 -8 9 -7 10
3 4 10 -6 13 -4 8 7 -3 9 0 21 6 27 8 8 8 11 -1 11 -7 0 -5 7 5 20 10 11 21
20 26 20 5 0 5 -6 -1 -12 -8 -10 -1 -13 29 -14 30 0 36 2 28 13 -9 9 -7 14 6
19 13 5 14 9 4 15 -7 4 -21 3 -32 -2 -14 -8 -22 -6 -33 8 -10 13 -13 14 -11 3
2 -8 2 -12 0 -7 -3 4 -9 4 -15 1 -5 -4 -4 4 3 17 11 22 11 23 -5 10 -9 -8 -19
-11 -23 -7 -3 3 -1 6 6 6 8 0 11 7 7 15 -4 12 0 14 19 11 13 -3 29 2 36 10 7
8 18 13 26 10 8 -3 12 -2 9 3 -10 16 22 20 35 5 10 -12 9 -13 -5 -8 -12 4 -16
0 -16 -16 0 -11 4 -18 10 -15 14 8 13 -8 -1 -22 -9 -9 -7 -12 8 -10 14 1 19 6
15 16 -4 10 0 13 15 9 20 -5 51 27 39 40 -3 3 -6 0 -6 -7 0 -7 -5 -9 -12 -5
-7 5 -8 3 -3 -6 5 -9 4 -11 -4 -6 -6 4 -9 12 -6 17 4 5 -1 12 -9 15 -9 3 -13
10 -10 15 3 5 -1 6 -9 4 -7 -3 -22 3 -32 15 -10 11 -13 20 -7 20 7 0 12 11 12
25 0 16 6 25 15 25 18 0 19 -11 3 -29 -11 -12 -9 -13 7 -6 11 4 26 8 33 8 18
1 15 15 -5 20 -17 4 -17 5 0 6 10 0 15 6 12 11 -3 6 -2 10 4 10 5 0 13 -4 16
-10 8 -13 45 -13 45 0 0 6 -7 13 -16 17 -9 3 -13 12 -9 21 3 9 3 13 -1 9 -4
-4 -14 -1 -22 6 -13 10 -14 8 -8 -13 5 -16 4 -20 -2 -12 -5 7 -16 10 -25 6
-13 -5 -16 -2 -11 10 3 9 10 16 15 16 4 0 6 7 2 16 -3 8 -11 13 -19 10 -8 -3
-12 3 -11 16 2 22 41 43 60 31 7 -4 6 1 -2 10 -11 14 -11 17 0 17 8 0 21 -4
29 -10 9 -6 17 -5 22 3 6 9 11 8 19 -3 9 -13 10 -12 5 3 -4 13 0 17 18 17 27
0 40 22 23 39 -8 8 -6 11 9 12 10 0 13 3 7 6 -24 9 -14 33 13 33 14 0 38 8 52
19 16 11 42 18 64 17 20 -1 35 2 32 6 -3 4 2 8 11 8 9 0 14 4 10 9 -6 11 57
31 99 31 16 0 37 6 45 13 27 23 105 50 109 38 2 -7 10 -5 19 5 8 8 28 18 44
21 16 3 29 10 29 14 0 10 39 28 74 35 108 21 -80 24 -1792 24 l-1832 0 0 -42z"/>
<path d="M3870 4990 c0 -6 -4 -9 -9 -6 -17 11 -63 -13 -57 -30 3 -8 2 -12 -3
-9 -5 3 -12 1 -15 -3 -3 -5 -17 -7 -31 -4 -17 3 -25 0 -25 -9 0 -9 -3 -10 -8
-4 -9 14 -44 13 -58 0 -9 -7 -9 -12 0 -18 6 -5 2 -7 -11 -4 -16 3 -23 0 -23
-9 0 -8 5 -14 10 -14 6 0 10 -7 8 -16 -2 -10 3 -19 11 -22 8 -3 11 0 7 7 -4 6
-1 11 6 11 11 0 11 2 0 8 -8 5 5 9 32 9 37 0 51 5 71 27 26 28 49 30 26 2 -9
-11 -7 -13 14 -13 14 0 25 4 25 9 0 6 11 7 25 4 24 -6 25 -4 25 38 0 25 -4 48
-10 51 -5 3 -10 1 -10 -5z"/>
<path d="M3516 4863 c-24 -20 -31 -22 -44 -11 -12 10 -14 10 -8 1 4 -8 1 -13
-8 -13 -9 0 -16 5 -16 10 0 6 -4 10 -10 10 -5 0 -10 -10 -10 -22 0 -17 -3 -20
-9 -9 -7 11 -10 10 -14 -5 -4 -15 -5 -13 -6 6 -1 19 -3 22 -10 10 -6 -8 -7
-18 -4 -24 4 -5 -3 -7 -16 -3 -18 4 -21 2 -16 -11 5 -14 4 -15 -6 -4 -15 14
-33 16 -24 3 7 -12 -31 -34 -44 -27 -5 3 -11 0 -14 -7 -2 -7 -17 -13 -32 -15
-31 -2 -47 -10 -41 -21 12 -18 -11 -32 -37 -22 -19 7 -27 7 -27 0 0 -6 -9 -8
-20 -4 -16 5 -20 2 -20 -14 0 -15 -4 -19 -17 -14 -11 4 -14 3 -9 -5 11 -18 34
-14 39 6 4 16 5 16 6 0 1 -18 21 -26 21 -9 0 4 12 6 26 3 20 -4 25 -2 19 8 -5
8 -3 11 6 8 8 -3 13 -11 11 -17 -1 -7 2 -10 8 -6 6 3 8 11 5 16 -8 12 1 11 24
-3 15 -9 23 -9 35 1 8 7 14 16 13 19 -1 4 2 8 7 9 5 1 13 7 17 15 7 11 9 11 9
0 0 -10 3 -10 15 2 8 8 15 20 15 26 0 6 5 8 10 5 6 -3 10 -1 10 4 0 6 11 11
25 11 18 0 23 -4 19 -15 -4 -9 0 -15 10 -15 9 0 16 7 16 15 0 19 74 89 78 75
2 -5 7 -8 12 -5 4 3 6 -4 3 -15 -3 -11 -10 -20 -15 -20 -5 0 -7 4 -4 9 4 5 -4
7 -16 3 -21 -5 -21 -5 2 -14 19 -7 27 -5 36 7 8 10 14 12 19 6 12 -21 26 -12
15 9 -6 12 -8 30 -5 40 6 19 8 19 37 4 16 -9 27 -11 24 -5 -4 6 0 11 8 11 17
0 21 12 9 23 -3 4 -15 0 -25 -10 -10 -9 -18 -11 -18 -6 0 22 -37 19 -64 -4z"/>
<path d="M2052 4263 c-26 -5 -37 -24 -45 -73 -4 -32 -3 -35 19 -35 15 0 24 6
24 15 0 10 8 6 23 -12 18 -22 26 -25 45 -17 13 5 26 18 29 29 7 25 14 25 48
-1 21 -17 29 -19 35 -9 11 18 2 38 -24 52 -20 10 -20 9 2 -15 l24 -25 -48 24
c-26 13 -58 24 -71 24 -27 0 -31 16 -5 23 16 4 16 5 -1 6 -10 0 -15 6 -12 11
6 10 -2 11 -43 3z"/>
<path d="M1824 2708 c-4 -6 -2 -13 3 -17 5 -3 23 -25 40 -49 29 -41 31 -42 38
-20 l8 23 4 -23 c3 -13 2 -31 -2 -40 -5 -13 -14 -7 -45 28 -22 25 -39 41 -39
35 0 -5 17 -29 39 -53 l38 -43 17 23 c15 20 16 21 12 3 -3 -11 -7 -36 -9 -55
-1 -19 -15 -60 -31 -90 -43 -80 -58 -129 -48 -149 6 -10 4 -25 -5 -41 -17 -32
-18 -60 -1 -60 14 0 50 99 72 200 8 36 21 91 29 123 7 32 12 67 9 77 -4 13 2
20 19 23 20 4 20 4 -5 6 -16 0 -26 5 -22 11 3 6 2 10 -3 10 -5 0 -13 14 -18
31 -7 26 -17 34 -52 44 -28 9 -44 9 -48 3z"/>
<path d="M972 1624 c30 -70 17 -220 -27 -291 -10 -18 -25 -33 -32 -33 -16 0
-16 -15 -1 -96 13 -72 28 -85 28 -25 0 22 15 74 33 119 30 70 35 94 41 204 6
112 5 126 -11 140 -10 8 -25 18 -35 21 -14 5 -14 1 4 -39z"/>
<path d="M3087 940 c-44 -155 -50 -236 -25 -335 11 -44 26 -121 33 -172 12
-83 12 -100 -6 -180 -10 -48 -28 -116 -40 -150 -29 -89 -22 -103 52 -103 l59
0 0 53 c0 29 5 58 12 65 9 9 9 20 -1 48 -7 20 -17 59 -21 87 -5 29 -14 84 -20
122 -16 91 -8 207 19 269 20 45 20 51 6 99 -8 28 -15 60 -15 71 0 11 -12 32
-26 47 -21 22 -24 31 -16 46 6 11 7 25 2 33 -8 12 -10 12 -13 0z"/>
</g>
</svg>
